<?xml version="1.0" encoding="UTF-8"?>
<!DOCTYPE svg PUBLIC "-//W3C//DTD SVG 1.1//EN" "http://www.w3.org/Graphics/SVG/1.1/DTD/svg11.dtd">
<svg version="1.1" xmlns="http://www.w3.org/2000/svg" xmlns:xlink="http://www.w3.org/1999/xlink" x="0" y="0" width="237" height="216" viewBox="0, 0, 237, 216">
  <g id="Layer_1" transform="translate(-51, -216)">
    <g>
      <g>
        <path d="M234.5,270.5 C244.441,270.5 252.5,278.559 252.5,288.5 L252.5,306.5 L72.5,306.5 L72.5,288.5 C72.5,278.559 80.559,270.5 90.5,270.5 L234.5,270.5 z" fill="#CCEEAA"/>
        <path d="M234.5,270.5 C244.441,270.5 252.5,278.559 252.5,288.5 L252.5,306.5 L72.5,306.5 L72.5,288.5 C72.5,278.559 80.559,270.5 90.5,270.5 L234.5,270.5 z" fill-opacity="0" stroke="#40AF30" stroke-width="10"/>
      </g>
      <g>
        <path d="M252.5,306.5 L252.5,360.5 C252.5,370.441 244.441,378.5 234.5,378.5 L90.5,378.5 C80.559,378.5 72.5,370.441 72.5,360.5 L72.5,306.5 L252.5,306.5 z" fill="#F9FFF0"/>
        <path d="M252.5,306.5 L252.5,360.5 C252.5,370.441 244.441,378.5 234.5,378.5 L90.5,378.5 C80.559,378.5 72.5,370.441 72.5,360.5 L72.5,306.5 L252.5,306.5 z" fill-opacity="0" stroke="#40AF30" stroke-width="10"/>
      </g>
    </g>
    <g>
      <path d="M234,414 C204.177,414 180,389.823 180,360 C180,330.177 204.177,306 234,306 C263.823,306 288,330.177 288,360 C288,389.823 263.823,414 234,414 z" fill="#0070FF"/>
      <path d="M243,324 L243,351 L270,351 L270,369 L243,369 L243,396 L225,396 L225,369 L198,369 L198,351 L225,351 L225,324 L243,324 z" fill="#FFFFFF"/>
    </g>
  </g>
</svg>
