<?xml version="1.0" encoding="UTF-8"?>
<!DOCTYPE svg PUBLIC "-//W3C//DTD SVG 1.1//EN" "http://www.w3.org/Graphics/SVG/1.1/DTD/svg11.dtd">
<svg version="1.1" xmlns="http://www.w3.org/2000/svg" xmlns:xlink="http://www.w3.org/1999/xlink" x="0" y="0" width="237" height="216" viewBox="0, 0, 237, 216">
  <g id="Layer_1" transform="translate(-267, -216)">
    <g>
      <g>
        <path d="M450.5,270.5 C460.441,270.5 468.5,278.559 468.5,288.5 L468.5,306.5 L288.5,306.5 L288.5,288.5 C288.5,278.559 296.559,270.5 306.5,270.5 L450.5,270.5 z" fill="#CCEEAA"/>
        <path d="M450.5,270.5 C460.441,270.5 468.5,278.559 468.5,288.5 L468.5,306.5 L288.5,306.5 L288.5,288.5 C288.5,278.559 296.559,270.5 306.5,270.5 L450.5,270.5 z" fill-opacity="0" stroke="#40AF30" stroke-width="10"/>
      </g>
      <g>
        <path d="M468.5,306.5 L468.5,360.5 C468.5,370.441 460.441,378.5 450.5,378.5 L306.5,378.5 C296.559,378.5 288.5,370.441 288.5,360.5 L288.5,306.5 L468.5,306.5 z" fill="#F9FFF0"/>
        <path d="M468.5,306.5 L468.5,360.5 C468.5,370.441 460.441,378.5 450.5,378.5 L306.5,378.5 C296.559,378.5 288.5,370.441 288.5,360.5 L288.5,306.5 L468.5,306.5 z" fill-opacity="0" stroke="#40AF30" stroke-width="10"/>
      </g>
    </g>
    <g>
      <path d="M450,414 C420.177,414 396,389.823 396,360 C396,330.177 420.177,306 450,306 C479.823,306 504,330.177 504,360 C504,389.823 479.823,414 450,414 z" fill="#FF0000"/>
      <path d="M414,351 L486,351 L486,369 L414,369 L414,351 z" fill="#FFFFFF"/>
    </g>
  </g>
</svg>
